<?xml version="1.0" encoding="UTF-8"?>
<svg width="400px" height="300px" viewBox="0 0 400 300" version="1.1" xmlns="http://www.w3.org/2000/svg" xmlns:xlink="http://www.w3.org/1999/xlink">
    <!-- Generator: Sketch 50.2 (55047) - http://www.bohemiancoding.com/sketch -->
    <title>image-not-avail</title>
    <desc>Created with Sketch.</desc>
    <defs></defs>
    <g id="Page-1" stroke="none" stroke-width="1" fill="none" fill-rule="evenodd">
        <g id="image-not-avail">
            <rect id="Rectangle" stroke="#979797" fill="#F5F5F5" x="0.5" y="0.5" width="399" height="299"></rect>
            <path d="M160.197419,119.981848 L160.189254,103.015024 L159.567351,103.012289 L158.975387,102.991771 C158.975387,102.995874 158.974026,103.005449 158.974026,103.009553 L158.733157,103.008185 L156.637468,107.325123 L156.640189,121.427667 C149.049437,124.468399 142.774615,126.7021 138.894866,127.76492 C133.827107,129.157393 129.980019,128.799016 127.46383,126.696629 C123.356822,123.268794 123.886188,116.162808 123.895714,116.032862 C123.899797,115.956263 124.27947,108.331861 129.86843,100.328565 C130.174619,99.8881169 130.508024,99.4668188 130.835986,99.0414171 C137.049571,91.8574636 146.009326,87.3161983 153.413643,84.5845998 C157.526094,83.3904659 162.01822,82.572491 166.841028,82.1265716 C175.180241,81.9090832 184.391751,83.4041444 191.06802,89.3378821 C195.817344,93.5590703 199.062942,97.4779634 200.27817,101.299739 C186.743278,108.422139 172.171429,115.053481 160.197419,119.981848 Z M277.263476,96.5532961 C277.215847,96.4137753 277.153248,96.2838295 277.102897,96.1443087 C276.83073,95.0089923 276.442891,93.8846188 275.918968,92.7862345 C274.179818,89.1395437 270.95055,86.0837645 266.30329,83.655829 L266.394466,83.4465478 C265.372477,82.9992605 264.351849,82.6217336 263.332581,82.2742995 C262.555543,81.9501188 261.760814,81.635513 260.919816,81.3414251 C257.148935,80.0159774 252.767038,79.983149 248.61104,80.148659 C247.745547,80.1828553 246.88958,80.2567192 246.037696,80.3511009 C232.21975,81.6765486 221.650125,88.8960662 221.043191,89.3214679 C216.213578,92.4401681 210.811053,95.5916969 205.149968,98.6816723 C203.334611,94.076118 199.555565,90.4444735 197.130552,88.4692967 C189.824215,81.4317032 178.421756,78.3513028 168.166484,79.1131958 C145.206431,80.8230095 133.427021,90.1996282 127.379458,99.0509921 C123.848085,103.413069 122.299452,107.656143 121.787777,111.350708 C121.654415,111.889642 121.541465,112.43815 121.450289,112.997601 C121.107358,114.727932 121.040677,115.801696 121.039316,115.84957 C121.009377,116.201108 120.369784,124.502596 125.621256,128.900237 C128.899514,131.646882 133.616177,132.196758 139.650131,130.543026 C143.410126,129.511666 149.397811,127.394233 156.640189,124.513539 L156.645633,154.589847 L160.211027,154.577536 L160.197419,123.080031 C172.22178,118.16671 187.000477,111.479286 200.79937,104.26524 C200.927289,108.371529 198.480503,112.424471 192.766346,116.67712 C192.337682,116.949323 191.887245,117.239307 191.390539,117.560752 C189.699018,118.653665 187.567946,120.026987 185.125242,121.449552 C181.636055,123.335819 177.504552,125.275432 172.685826,127.288908 C169.802211,128.277865 166.790677,129.034286 163.726071,129.368042 L162.444162,129.506195 L162.472739,136.081455 L162.42511,136.252436 C166.711748,141.611676 167.755511,142.407765 169.629384,144.49921 C175.716411,151.293326 183.748075,154.379197 188.30552,155.954962 C189.277158,156.417295 190.231105,156.778408 191.152392,157 L191.372848,156.067126 C184.267915,154.360048 174.914878,144.103901 169.400764,137.361763 C167.447962,134.638372 166.183743,133.009261 165.374045,132.058605 C172.564711,131.016302 179.344404,127.972834 184.809528,124.941676 C188.745071,123.126538 193.156906,120.801191 198.024622,117.760458 C205.050627,112.127648 206.758478,106.643933 206.027709,101.894754 C207.683848,100.800474 210.145603,99.2315484 213.173467,97.4697563 C213.482377,97.2919357 213.794009,97.114115 214.098837,96.9362944 C227.255415,89.4076425 249.736452,79.1597027 262.491584,88.1642659 C280.238267,100.692413 271.796991,125.590037 236.400244,124.177047 C236.031457,124.078562 235.688526,123.960927 235.360564,123.835084 L235.351038,103.015024 L233.894942,103.008185 L231.800612,107.325123 L231.808777,154.589847 L235.374172,154.577536 L235.361925,125.304156 C239.330127,126.514705 254.711675,129.99315 270.364029,117.180489 C273.104756,114.934478 275.936659,111.211188 277.098815,107.838067 C278.055484,105.062697 278.454209,100.030373 277.263476,96.5532961 Z" id="Fill-1" fill="#581C41"></path>
            <g id="Group" transform="translate(115.000000, 165.000000)" fill="#581C41">
                <path d="M2.5346717,6.74733333 C2.11136604,6.74733333 1.58352453,6.70066667 1.20667925,6.65333333 L1.20667925,1.55866667 C1.59836604,1.46466667 2.20235094,1.43333333 2.71535094,1.43333333 C4.54021132,1.43333333 5.49071321,2.69533333 5.49071321,4.03666667 C5.49071321,5.51666667 4.60086792,6.74733333 2.5346717,6.74733333 Z M2.5346717,0.311333333 C1.62869434,0.311333333 0.814992453,0.389333333 0,0.498666667 L0,11.8126667 L1.20667925,11.8126667 L1.20667925,7.776 C1.58352453,7.80733333 2.08103774,7.83866667 2.4585283,7.83866667 C5.17387925,7.83866667 6.78773208,6.23333333 6.78773208,3.94266667 C6.78773208,1.99466667 5.38553208,0.311333333 2.5346717,0.311333333 Z" id="Fill-1"></path>
                <polyline id="Fill-2" points="21.4679208 5.45466667 15.5545472 5.45466667 15.5545472 0.389333333 14.3478679 0.389333333 14.3478679 11.8126667 15.5545472 11.8126667 15.5545472 6.57666667 21.4679208 6.57666667 21.4679208 11.8126667 22.6746 11.8126667 22.6746 0.389333333 21.4679208 0.389333333 21.4679208 5.45466667"></polyline>
                <path d="M36.2694226,10.8933333 C33.8102491,10.8933333 32.0602415,8.80466667 32.0602415,6.10933333 C32.0602415,3.41266667 33.8102491,1.324 36.2694226,1.324 C38.7131094,1.324 40.4624717,3.41266667 40.4624717,6.10933333 C40.4624717,8.80466667 38.7131094,10.8933333 36.2694226,10.8933333 Z M36.3145925,0.202 C33.3275774,0.202 30.7483811,2.68 30.7483811,6.10933333 C30.7483811,9.538 33.2217509,12 36.208766,12 C39.1957811,12 41.7749774,9.538 41.7749774,6.10933333 C41.7749774,2.68 39.3009623,0.202 36.3145925,0.202 Z" id="Fill-4"></path>
                <polyline id="Fill-5" points="48.4149396 1.512 52.1111208 1.512 52.1111208 11.8126667 53.3178 11.8126667 53.3178 1.512 56.9984943 1.512 56.9984943 0.389333333 48.4149396 0.389333333 48.4149396 1.512"></polyline>
                <path d="M69.0085019,10.8933333 C66.5499736,10.8933333 64.799966,8.80466667 64.799966,6.10933333 C64.799966,3.41266667 66.5499736,1.324 69.0085019,1.324 C71.4521887,1.324 73.2015509,3.41266667 73.2015509,6.10933333 C73.2015509,8.80466667 71.4521887,10.8933333 69.0085019,10.8933333 Z M69.054317,0.202 C66.0673019,0.202 63.4881057,2.68 63.4881057,6.10933333 C63.4881057,9.538 65.9614755,12 68.9478453,12 C71.9348604,12 74.5140566,9.538 74.5140566,6.10933333 C74.5140566,2.68 72.0400415,0.202 69.054317,0.202 Z" id="Fill-6"></path>
                <path d="M88.0333811,7.324 L90.9597396,7.324 L90.9597396,10.1146667 C90.0853811,10.6586667 89.2258642,10.8933333 88.1392075,10.8933333 C85.5600113,10.8933333 83.5228528,8.80466667 83.5228528,6.10933333 C83.5228528,3.58466667 85.167034,1.324 88.0030528,1.324 C89.2103774,1.324 90.4770679,1.80733333 91.4882264,2.57133333 L92.1218943,1.59 C90.9597396,0.747333333 89.8130717,0.202 87.9882113,0.202 C85.1367057,0.202 82.2109925,2.52466667 82.2109925,6.10933333 C82.2109925,9.67733333 85.0618528,12 88.124366,12 C89.7679019,12 91.0507245,11.5166667 92.1657736,10.6586667 L92.1657736,6.15466667 L88.0333811,6.15466667 L88.0333811,7.324" id="Fill-7"></path>
                <path d="M102.880053,6.28 C102.458038,6.28 101.899223,6.24866667 101.537864,6.202 L101.537864,1.55866667 C101.929551,1.46466667 102.548377,1.43333333 103.061377,1.43333333 C104.871396,1.43333333 105.83674,2.478 105.83674,3.818 C105.83674,5.298 104.946894,6.28 102.880053,6.28 Z M107.133758,3.73933333 C107.133758,1.776 105.730913,0.311333333 102.880053,0.311333333 C101.959879,0.311333333 101.145532,0.389333333 100.33054,0.498666667 L100.33054,11.8126667 L101.537864,11.8126667 L101.537864,7.30866667 C101.899223,7.324 102.427709,7.34 102.789068,7.34 C103.046536,7.34 103.287226,7.324 103.529208,7.30866667 L106.470408,11.8126667 L107.932619,11.8126667 L104.719755,7.044 C106.274242,6.53 107.133758,5.32933333 107.133758,3.73933333 Z" id="Fill-9"></path>
                <path d="M117.183396,7.60533333 L119.219909,2.69533333 L121.255132,7.60533333 L117.183396,7.60533333 Z M119.144411,0.186 L114.18154,11.8126667 L115.434034,11.8126667 L116.745894,8.64866667 L121.693925,8.64866667 L123.005785,11.8126667 L124.302804,11.8126667 L119.339932,0.186 L119.144411,0.186 Z" id="Fill-10"></path>
                <path d="M134.156275,6.74733333 C133.733615,6.74733333 133.205774,6.70066667 132.828928,6.65333333 L132.828928,1.55866667 C133.220615,1.46466667 133.8246,1.43333333 134.3376,1.43333333 C136.16246,1.43333333 137.112962,2.69533333 137.112962,4.03666667 C137.112962,5.51666667 136.223117,6.74733333 134.156275,6.74733333 Z M134.156275,0.311333333 C133.250943,0.311333333 132.437242,0.389333333 131.621604,0.498666667 L131.621604,11.8126667 L132.828928,11.8126667 L132.828928,7.776 C133.205774,7.80733333 133.703932,7.83866667 134.080132,7.83866667 C136.796128,7.83866667 138.409336,6.23333333 138.409336,3.94266667 C138.409336,1.99466667 137.007136,0.311333333 134.156275,0.311333333 Z" id="Fill-11"></path>
                <polyline id="Fill-12" points="153.089525 5.45466667 147.176151 5.45466667 147.176151 0.389333333 145.970117 0.389333333 145.970117 11.8126667 147.176151 11.8126667 147.176151 6.57666667 153.089525 6.57666667 153.089525 11.8126667 154.297494 11.8126667 154.297494 0.389333333 153.089525 0.389333333 153.089525 5.45466667"></polyline>
                <polyline id="Fill-13" points="166.367513 5.68733333 163.199819 0.389333333 161.842789 0.389333333 165.719649 6.732 165.719649 11.8126667 166.925683 11.8126667 166.925683 6.74733333 170.817385 0.389333333 169.490038 0.389333333 166.367513 5.68733333"></polyline>
            </g>
            <text id="Image-not-available" font-family="ArialMT, Arial" font-size="16" font-weight="normal" letter-spacing="2.03999996" fill="#581C41">
                <tspan x="111.241094" y="226">Image not available</tspan>
            </text>
        </g>
    </g>
</svg>